<?xml version="1.0"?>
<svg width="600" height="442" xmlns="http://www.w3.org/2000/svg" xmlns:svg="http://www.w3.org/2000/svg" preserveAspectRatio="xMidYMid meet" version="1.1">
 <desc>Created with Snap</desc>

 <g class="layer">
  <title>Layer 1</title>
  <g id="root">
   <rect class="background" fill="transparent" height="2000%" id="svg_10" width="2000%" x="-1000%" y="-1000%"/>
   <g class="content" id="content" transform="matrix(1,0,0,1,-5.5,0)">
    <g class="icon" id="svg_11">
     <g id="svg_2">
      <svg height="250" id="svg_12" preserveAspectRatio="none" transform="matrix(1,0,0,1,0,0)" version="1.1" width="235" x="188" xmlns="http://www.w3.org/2000/svg" y="96">
       <desc>Created with Snap</desc>

       <g id="svg_4">
        <svg id="svg_13" viewBox="188 96 235 250" xmlns="http://www.w3.org/2000/svg">
         <path d="m305.5,96c64.89,0 117.5,52.61 117.5,117.5c0,18.15 -4.12,35.34 -11.47,50.69l5.65,4.68l0,53.34c-38.97,15.54 -75.29,23.31 -108.97,23.31c-33.67,0 -71.97,-7.77 -114.89,-23.31l0,-53.34l5.97,-5.06c-7.24,-15.25 -11.29,-32.31 -11.29,-50.31c0,-64.89 52.61,-117.5 117.5,-117.5zm102.81,181.94a178.09,178.09 0 0 1 -6.69,3.16l-0.76,0.33l-0.27,0.12l1.03,-0.45c-0.56,0.25 -1.12,0.5 -1.69,0.74l-0.81,0.35a120.39,120.39 0 0 1 -1.75,0.74l-0.23,0.1a183.45,183.45 0 0 1 -2.83,1.15a186.3,186.3 0 0 1 -11.33,4.06l0,0l-0.15,0.05c-0.39,0.13 -0.77,0.25 -1.15,0.37l1.3,-0.42a191.38,191.38 0 0 1 -3.03,0.95c-22.09,6.74 -46.4,9.8 -72.93,9.21c-27.32,-0.61 -52.95,-4.23 -76.89,-10.87l0,0l-1.1,-0.3a273.79,273.79 0 0 1 -0.34,-0.1l1.44,0.4a330.71,330.71 0 0 1 -3.81,-1.08a269.29,269.29 0 0 1 -10.44,-3.29l0,0l-0.73,-0.25c-0.29,-0.1 -0.59,-0.2 -0.88,-0.3l1.61,0.55a272.11,272.11 0 0 1 -5.12,-1.79a260.89,260.89 0 0 1 -9,-3.43l18.44,22.96l-21.48,19.34c40.98,14.49 77.39,21.74 109.2,21.74c31.82,0 66.01,-7.25 102.57,-21.74l-21,-20.34l18.82,-21.96zm-201.81,18.06a3.5,3.5 0 1 0 0,7a3.5,3.5 0 0 0 0,-7zm198,0a3.5,3.5 0 1 0 0,7a3.5,3.5 0 0 0 0,-7zm-99,-189c-58.54,0 -106,47.46 -106,106c0,26.47 9.7,50.68 25.75,69.25c24.7,7.98 52.36,11.96 82.96,11.96c28.95,0 54.43,-3.57 76.44,-10.7c16.7,-18.74 26.85,-43.44 26.85,-70.51c0,-58.54 -47.46,-106 -106,-106zm0,-7c-62.68,0 -113.5,50.82 -113.5,113.5c0,23.67 7.25,45.65 19.64,63.84a205.93,205.93 0 0 0 9.99,3.71c-15.09,-18.57 -24.13,-42.25 -24.13,-68.05c0,-59.65 48.35,-108 108,-108s108,48.35 108,108c0,26.35 -9.44,50.5 -25.12,69.25a166.23,166.23 0 0 0 10.35,-3.99c12.78,-18.37 20.27,-40.69 20.27,-64.76c0,-62.68 -50.82,-113.5 -113.5,-113.5z" fill="#D47449" fill-rule="nonzero" id="svg_3"/>
        </svg>
       </g>
      </svg>
     </g>
     <g id="svg_5">
      <svg height="138" id="svg_14" preserveAspectRatio="none" transform="matrix(1,0,0,1,0,0)" version="1.1" width="142" x="236" xmlns="http://www.w3.org/2000/svg" y="139">
       <desc>Created with Snap</desc>

       <g id="svg_6">
        <svg id="svg_15" preserveAspectRatio="xMidYMid meet" viewBox="0 0 512 512" xmlns="http://www.w3.org/2000/svg" xmlns:xlink="http://www.w3.org/1999/xlink">
         <g fill="#f7931e" id="svg_7">
          <svg class="icon" id="svg_16" preserveAspectRatio="xMidYMid meet" version="1" viewBox="0 0 512 512">
           <g id="svg_8">
            <svg height="512" id="svg_17" preserveAspectRatio="xMidYMid meet" width="512">
             <g id="svg_9">
              <svg id="svg_18" version="1.1" viewBox="0 0 1992 1294">
               <path d="m0,0c3,2.7 5.9,5.5 8.8,8.4c0.6,0.7 1.3,1.3 2,2c12.2,13.1 17.4,29.3 17.2,46.9c-0.8,17.2 -8.9,33.4 -20.2,46.1c-0.7,0.7 -1.3,1.5 -1.9,2.3c-5.1,6 -10.9,10.8 -17.1,15.7c-1.5,1.2 -1.5,1.2 -2.9,2.4c-14.1,11.2 -29.9,20 -46.1,27.6c-0.8,0.3 -1.5,0.7 -2.3,1.1c-22.4,10.6 -45.8,18 -69.6,25c-2.5,0.7 -5,1.5 -7.5,2.2c-12.1,3.6 -24.1,7.1 -36.2,10.7c-86.3,25.2 -169.9,55.8 -249.1,98.7c-2.6,1.5 -5.3,2.9 -8,4.3c-13.2,7.1 -26.2,14.5 -39.1,22.1c-3.4,2 -6.9,4 -10.4,6c-14.3,8.3 -28.3,16.8 -42,26c-3,2 -6,4 -9,5.9c-22.2,14.7 -43.7,30.1 -63.9,47.5c-2.7,2.3 -5.4,4.5 -8.2,6.7c-12.5,10.2 -23.9,21.9 -35.4,33.3c-0.5,0.5 -1,1 -1.5,1.5c-5.8,5.8 -11.5,11.7 -16.8,18c-0.9,1 -1.8,2 -2.7,3c-7.4,8.7 -14.5,17.8 -21.3,27c-0.6,0.7 -1.1,1.4 -1.7,2.2c-10.1,13.7 -18.5,26.9 -22.3,43.8c-0.2,0.9 -0.5,1.8 -0.7,2.7c-2.4,11.1 -2.5,22.2 -2.5,33.5c0,3.5 -0.1,6.9 -0.1,10.4c0,1.8 0,3.6 0,5.4c-0.5,63.3 -0.5,63.3 -3.5,92.9c-0.2,2.1 -0.4,4.2 -0.6,6.3c-8.6,89.2 -37.5,173.8 -92.6,249.8c-0.7,1 -1.5,1.9 -2.2,3c-16.9,22.8 -35.7,43.9 -55.7,64c-0.8,0.8 -1.6,1.6 -2.4,2.4c-4.2,4.2 -8.5,8.2 -13,12.1c-2.2,1.9 -4.3,3.8 -6.4,5.7c-4.5,4.1 -9.2,7.9 -14,11.6c-3.8,2.9 -7.4,5.9 -11,9c-54.3,45.5 -119.1,81.8 -181.8,114.3c-3.4,1.8 -6.8,3.6 -10.2,5.4c-13.8,7.4 -28.1,14 -42.3,20.5c-1.1,0.5 -2.2,1 -3.4,1.5c-29,13.3 -58.7,24.9 -88.9,35.2c-3.2,1.1 -6.5,2.2 -9.7,3.4c-76.4,26.7 -161.2,42.9 -242.3,43.1c-0.7,0 -1.5,0 -2.3,0c-3.9,0 -7.9,0 -11.9,0c-3.1,0 -6.3,0 -9.5,0.1c-29.4,0.2 -58.5,-1.4 -87.5,-5.6c-0.8,-0.1 -1.5,-0.2 -2.3,-0.3c-55.4,-7.7 -107.7,-20.8 -155.2,-51.4c-1.1,-0.7 -2.2,-1.4 -3.3,-2.1c-6.7,-4.3 -13.3,-8.7 -19.9,-13c-2.4,-1.7 -4.9,-3.2 -7.4,-4.8c-7.8,-5.1 -14.9,-10.7 -21.9,-16.8c-2.3,-1.9 -4.6,-3.7 -6.8,-5.6c-6.3,-5.1 -12.1,-10.6 -18,-16.2c-2.9,-2.7 -5.8,-5.4 -8.8,-8c-5.1,-4.5 -9.8,-9.3 -14.5,-14.1c-3.1,-3.2 -6.2,-6.2 -9.6,-9c-4.1,-3.5 -7.6,-7.4 -11.1,-11.3c-3.6,-3.9 -7.3,-7.7 -11,-11.4c-4.5,-4.4 -8.7,-8.9 -12.7,-13.7c-0.9,-1 -1.7,-1.9 -2.6,-2.9c-12.9,-14.9 -22.4,-30.6 -31.4,-48.1c-0.8,-1.4 -0.8,-1.4 -1.5,-2.8c-17.3,-33.7 -21.3,-68.2 -10.1,-104.6c6.8,-21 16.9,-40.6 29.6,-58.6c0.7,-1.1 1.5,-2.2 2.2,-3.3c8.3,-11.8 17.5,-22.9 26.8,-33.9c0.4,-0.5 0.9,-1 1.3,-1.5c9.9,-11.5 20.5,-22.3 31.2,-33c2.2,-2.2 4.4,-4.4 6.6,-6.6c1.4,-1.4 2.9,-2.8 4.3,-4.3c0.6,-0.6 1.3,-1.3 1.9,-1.9c3.8,-3.8 7.8,-7.4 11.8,-10.9c3,-2.6 5.8,-5.3 8.7,-8c5,-4.7 10.1,-9.1 15.5,-13.4c2.8,-2.3 5.5,-4.8 8.2,-7.2c5.3,-4.9 10.8,-9.5 16.5,-14c1.2,-1 2.4,-2 3.6,-3c8.2,-6.7 16.6,-13.3 25,-19.7c3.8,-2.9 7.5,-5.8 11.3,-8.7c7.6,-6 15.3,-11.8 23.2,-17.3c2,-1.4 4,-2.8 5.9,-4.2c9.6,-6.8 19.2,-13.5 29,-20.1c1.5,-1 1.5,-1 3,-2.1c13.6,-9.1 27.2,-18.1 41.4,-26.4c2.9,-1.7 5.7,-3.5 8.5,-5.2c6.7,-4.2 13.5,-7.8 20.4,-11.3c1.3,-0.7 2.6,-1.3 3.8,-2c4,-2 7.9,-4 11.9,-6c0.6,-0.3 1.2,-0.7 1.9,-1c8.4,-4.3 16.8,-8.5 25.2,-12.7c2.6,-1.3 5.2,-2.6 7.9,-3.9c18.1,-9.2 36.4,-18 55,-26.4c1.7,-0.8 1.7,-0.8 3.6,-1.7c34.1,-15.6 68.8,-29.6 104.1,-42.5c2.2,-0.8 4.4,-1.6 6.6,-2.4c82,-30 167.8,-50.5 368.7,-63.8c42,1.2 84.7,2.2 125,-11.6c0.9,-0.3 1.9,-0.7 2.9,-1c36.3,-12.5 73.7,-29.3 106.1,-50c0.7,-0.5 1.4,-0.9 2.1,-1.4c14.4,-9.3 28.2,-19.3 41.9,-29.6c21.7,-16.4 44.3,-31.3 67.1,-46.1c4.8,-3.1 9.6,-6.3 14.4,-9.4c1.9,-1.3 3.8,-2.5 5.7,-3.8c3.9,-2.5 7.7,-5 11.6,-7.5c11.6,-7.6 23.1,-15.1 34.7,-22.6c4.2,-2.7 8.3,-5.4 12.5,-8.1c4.9,-3.2 9.9,-6.5 14.9,-9.7c18.7,-12.2 37.4,-24.4 56.1,-36.6c12.3,-8.1 24.6,-16.2 37,-24.2c0.8,-0.6 1.7,-1.2 2.6,-1.8c29.4,-19.1 59,-37.8 89,-56c4.2,-2.5 8.4,-5.1 12.7,-7.6c11,-6.7 22,-13.4 33,-20c5.8,-3.5 11.6,-7 17.4,-10.5c23.6,-14.4 47.2,-28.6 71.3,-42.1c0.7,-0.4 1.5,-0.9 2.2,-1.3c62.5,-35.2 194,-104.5 265,-49.1zm-849.6,440.5c-9.4,5 -19.5,8.5 -29.6,11.9c2.6,2.7 5.8,3.7 9.3,5.1c0.7,0.3 1.5,0.6 2.2,0.9c1.7,0.7 3.3,1.3 4.9,2c3.6,1.4 7.1,2.9 10.6,4.3c1.8,0.7 3.7,1.5 5.5,2.2c9,3.7 18,7.4 27,11.2c2.6,1 5.2,2.1 7.7,3.2c7.2,2.9 14.4,5.9 21.5,9c2.8,1.1 5.5,2.3 8.2,3.4c1.9,0.8 3.7,1.6 5.6,2.4c1.1,0.4 2.2,0.9 3.3,1.4c0.9,0.4 1.8,0.8 2.8,1.2c2.5,1 2.5,1 5.4,-0.3c1.5,-1.8 2.9,-3.6 4.3,-5.5c0.9,-1.1 1.7,-2.3 2.6,-3.5c0.5,-0.6 1,-1.3 1.5,-1.9c3.5,-4.7 7.1,-9.2 10.7,-13.8c3.4,-4.3 6.7,-8.8 9.9,-13.3c-2.1,-2.1 -3.3,-2.7 -5.9,-3.7c-0.8,-0.4 -1.6,-0.7 -2.5,-1c-0.9,-0.4 -1.7,-0.7 -2.6,-1.1c-1,-0.4 -1.9,-0.7 -2.8,-1.1c-2,-0.8 -3.9,-1.6 -5.9,-2.4c-5,-2 -10.1,-4.1 -15.1,-6.1c-1,-0.4 -2,-0.8 -3,-1.2c-8.4,-3.4 -16.7,-7 -24.9,-10.7c-0.8,-0.3 -1.6,-0.7 -2.5,-1.1c-0.6,-0.3 -1.3,-0.6 -2,-0.9c-16.5,-6.6 -31.9,1.6 -46.2,9.4zm-23.6,34.9c2.7,2.1 5.2,3.7 8.4,5.1c1.3,0.6 1.3,0.6 2.6,1.1c0.9,0.5 1.8,0.9 2.8,1.3c2,0.9 3.9,1.8 5.9,2.7c1.6,0.7 1.6,0.7 3.1,1.4c22.5,10.2 42.7,20.3 58.2,40.1c1.8,2.3 1.8,2.3 4,3.3c8.3,0.7 16.7,-0.8 25,-2c-4.2,-4.6 -8.9,-7.7 -14.2,-11c-0.9,-0.5 -1.8,-1.1 -2.7,-1.6c-22.9,-13.9 -46.9,-25.2 -71.9,-34.4c-0.7,-0.3 -1.4,-0.5 -2,-0.8c-1.9,-0.7 -3.8,-1.3 -5.7,-2c-1.1,-0.4 -2.2,-0.8 -3.3,-1.2c-3.4,-1.1 -6.7,-1.6 -10.2,-2zm108,70c0,1.3 0,1.3 0,2.6c1.2,57.4 -18.4,105.5 -54,150.4c-0.5,0.6 -1,1.2 -1.5,1.8c-6.4,8.1 -12.9,15.9 -19.9,23.3c-1.9,2.1 -3.8,4.2 -5.6,6.4c-4.9,5.5 -10.1,10.7 -15.2,15.8c-1.8,1.7 -3.5,3.5 -5.2,5.2c-5.7,5.7 -11.5,11.3 -17.6,16.5c-1.8,1.6 -3.6,3.2 -5.3,4.9c-4.5,4 -9.1,7.9 -13.8,11.7c-2.7,2.2 -5.3,4.4 -7.9,6.7c-7.4,6.5 -15.2,12.4 -23.1,18.3c-2.9,2.1 -5.7,4.3 -8.6,6.5c-24.5,19 -50.7,36.1 -77,52.4c-2.4,1.5 -4.8,3 -7.2,4.6c-29.4,18.3 -59.5,35.9 -90,52.2c-3.2,1.7 -6.4,3.4 -9.5,5.2c-29.7,16.1 -59.9,31 -90.7,44.6c-1.9,0.9 -3.8,1.7 -5.7,2.6c-74.1,33 -152.3,58.8 -263.2,83.3c-0.9,0.2 -1.8,0.4 -2.8,0.5c-49.3,10 -99.3,16.6 -149.5,20.2c-0.8,0 -1.7,0.1 -2.6,0.2c-22.8,1.5 -45.5,2.3 -68.3,2.3c-1.1,0 -2.2,0 -3.4,0c-61.3,-0.1 -134.2,-5.9 -180.4,-51.2c-0.6,-0.6 -1.3,-1.2 -1.9,-1.8c-17.9,-19 -24.4,-45.8 -24.1,-71.2c1.3,-34 14.8,-67.8 35,-95c0.4,-0.6 0.9,-1.2 1.3,-1.9c17.2,-23.4 36.2,-44.7 56.7,-65.2c0.7,-0.8 1.5,-1.6 2.3,-2.4c4.1,-4.1 8.4,-8.1 12.8,-11.9c3,-2.6 5.8,-5.3 8.7,-8c5,-4.7 10.2,-9.2 15.6,-13.5c2.5,-2.1 5,-4.3 7.4,-6.5c4.4,-4 9,-7.7 13.8,-11.4c4.6,-3.6 9.1,-7.3 13.5,-11.1c4.9,-4.2 9.9,-8 15,-11.8c2.9,-2.3 5.3,-4.7 7.9,-7.3c-4.7,1.6 -8.3,4.1 -12.3,6.9c-0.7,0.4 -1.4,0.9 -2.1,1.4c-2.2,1.6 -4.4,3.1 -6.6,4.7c-1.4,1 -2.8,1.9 -4.2,2.9c-16.4,11.5 -32.5,23.3 -47.8,36.1c-0.6,0.5 -1.2,1 -1.8,1.5c-6.4,5.3 -12.6,10.7 -18.7,16.2c-1.4,1.3 -2.8,2.5 -4.2,3.7c-5.9,5 -11.3,10.4 -16.8,15.9c-1.6,1.6 -3.2,3.2 -4.8,4.8c-5.4,5.5 -10.8,11 -15.7,16.9c-0.6,0.6 -1.1,1.2 -1.7,1.9c-14.7,17.4 -27.7,35.5 -39.3,55.1c-0.7,1.1 -0.7,1.1 -1.4,2.3c-19.6,32.8 -35.3,75.2 -26.1,113.7c7.4,28.3 27.5,48.7 52,63.4c42.4,24.6 92.3,31.8 140.6,31.7c1.7,0 3.4,0 5.1,0c3.5,0 7,0 10.6,0c4.4,0 8.8,0 13.2,0c47,0.1 47,0.1 94,-2.6c1.3,-0.1 1.3,-0.1 2.7,-0.2c22.1,-1.9 44.2,-4.5 66.3,-7c1.9,-0.2 3.9,-0.4 5.8,-0.6c38.5,-4.2 38.5,-4.2 76.7,-11.3c1,-0.2 2.1,-0.5 3.2,-0.7c27,-6.3 53.8,-13.8 80.2,-22.1c2.2,-0.7 4.4,-1.3 6.6,-2c74.5,-23 147.3,-50.9 217.4,-85.1c3.3,-1.6 6.6,-3.2 10,-4.8c24.8,-11.9 49.3,-24.3 73.2,-38.1c3.1,-1.7 6.1,-3.5 9.2,-5.2c21.8,-12.5 42.9,-25.8 63.8,-39.7c0.8,-0.6 1.7,-1.1 2.5,-1.7c10.3,-6.8 20.4,-13.8 30.4,-21c0.8,-0.6 1.7,-1.3 2.6,-1.9c17,-12.4 33.5,-25.4 49.5,-39c3.4,-2.9 6.8,-5.7 10.2,-8.4c6,-4.9 11.6,-10.2 17.2,-15.5c2.5,-2.4 5.1,-4.7 7.7,-6.9c4.3,-3.7 8.2,-7.7 12.2,-11.8c2.6,-2.5 2.6,-2.5 5,-4.3c2.9,-2.5 5.2,-5.1 7.6,-8c4.2,-4.7 8.8,-9.1 13.3,-13.5c4.8,-4.7 9.3,-9.6 13.7,-14.7c1,-1.2 2.1,-2.4 3.1,-3.6c6.8,-7.7 13.3,-15.6 19.6,-23.7c1.2,-1.7 2.5,-3.3 3.7,-4.8c10.2,-12.9 19.3,-26.7 27.6,-40.9c0.6,-1.1 0.6,-1.1 1.2,-2.1c13.6,-23.5 34,-58.8 26.6,-87c-2.4,-7.1 -6.4,-13.8 -12.8,-17.9c-1.4,-0.4 -2.7,-0.7 -4,-1zm-285,116c-1.8,0.2 -3.7,0.4 -5.5,0.6c-83.3,9.6 -166.3,27.1 -436.7,144.7c-2.8,1.7 -5.6,3.3 -8.4,4.9c-13.8,8 -27.2,16.7 -40.4,25.8c-0.8,0.5 -1.6,1.1 -2.4,1.6c-18.2,12.5 -35.7,26.1 -52.6,40.4c-0.7,0.5 -1.3,1 -1.9,1.6c-8,6.7 -15.7,13.6 -23.3,20.7c-2,1.8 -3.9,3.7 -5.9,5.5c-7.1,6.6 -14.2,13.3 -21.1,20.2c-0.6,0.6 -1.1,1.2 -1.7,1.8c-3.6,3.6 -7,7.3 -10.3,11.2c-3.7,4.1 -7.5,8 -11.2,12c-4.3,4.6 -8.5,9.2 -12.6,14c-0.5,0.6 -1,1.1 -1.5,1.7c-22.8,26.2 -42.9,54.1 -58,85.4c-0.5,0.9 -0.9,1.8 -1.3,2.7c-2.1,4.4 -3.8,8.3 -4.2,13.2c2.9,0.3 5.8,0.6 8.7,0.9c0.8,0.1 1.6,0.2 2.4,0.3c19.2,2 38.6,2 57.9,2c1,0 1,0 2,0c24.7,0.1 49.3,-0.9 74,-3.2c1.1,-0.1 1.1,-0.1 2.2,-0.2c89.7,-8.4 177.4,-30.4 430.8,-126.8c1.6,-0.8 1.6,-0.8 3.2,-1.6c15.6,-7.6 30.8,-15.7 45.8,-24.4c1.9,-1.1 3.8,-2.2 5.8,-3.3c15.5,-9 30.9,-18.3 46.2,-27.7c1.5,-0.9 1.5,-0.9 3,-1.9c26.3,-16.1 51.8,-33.3 77,-51.1c0.8,-0.6 1.6,-1.1 2.4,-1.7c10.7,-7.6 21.2,-15.5 31.5,-23.7c2,-1.5 3.9,-3.1 5.9,-4.6c11,-8.6 21.8,-17.5 32.5,-26.6c1.7,-1.4 3.4,-2.9 5.1,-4.4c6.9,-5.8 13.6,-11.7 20.2,-17.9c2.6,-2.4 5.1,-4.7 7.7,-7.1c7.8,-7.1 15.3,-14.4 22.7,-21.8c1.4,-1.3 2.8,-2.7 4.2,-4.1c9.3,-9.1 17.4,-18.4 24.8,-29.1c-1,-1.1 -1.9,-2.3 -2.9,-3.4c-0.5,-0.6 -1.1,-1.3 -1.6,-1.9c-16.3,-18.3 -49.6,-20.4 -72.3,-23.4c-2.2,-0.3 -4.4,-0.6 -6.6,-0.9c-43.9,-6 -89.6,-5.6 -133.6,-0.4z" id="svg_19" transform="translate(1960.234375,21.61328125)"/>
              </svg>
             </g>
            </svg>
           </g>
          </svg>
         </g>
        </svg>
       </g>
      </svg>
     </g>
    </g>
    <g id="icon_name_and_slogan_gap"/>
    <g class="name_and_slogan" id="name_and_slogan_id">
     <g class="name" id="svg_20">
      <g id="nameDefaultGroup">
       <path d="m238.73,303.69l3.76,1.37l-2.25,8.23l6.37,-7.26l4.04,1.47l-10.67,11.76l-4.23,-1.54l1.53,-7.11l-5.29,5.74l-4.22,-1.54l3.16,-13.96l-0.3,-0.64l4.51,1.64l-2.42,8.7l6.01,-6.86zm19.94,3.43l-2.15,4.91l7.73,2.07l-4.27,10.14l-4.83,-1.29l3.43,-7.78l-2.9,-0.78l-3.43,7.78l-4.83,-1.29l6.21,-14.28l-0.28,-0.91l5.32,1.43zm15.69,10.72l-2.66,-0.47l-0.37,0.95l-4.92,-0.87l1.29,-3.33l12.12,2.14l-3.17,9.29l0.78,1.36l-11.62,-2.05q-0.69,-0.12 -1,-0.68q-0.32,-0.47 -0.18,-1.26l0,0l1.62,-4.58l7.39,1.3l0.72,-1.8m-4.11,3.74l-0.56,1.42l2.46,0.44l0.56,-1.43l-2.46,-0.43zm13.22,-6.68l-0.43,-0.84l5.48,0.48l-0.5,2.26l3.09,0.27l-0.72,2.45l-2.89,-0.25l-1.41,5.8l2.49,0.22l-0.72,2.44l-5.47,-0.48q-0.7,-0.06 -1.16,-0.6q-0.46,-0.44 -0.19,-1.22l0,0l1.58,-6.59l-1.99,-0.17l0.51,-2.47l2,0.18l0.33,-1.48zm17.33,10.92l0.2,-1.7l-7.5,0l1,-6.7l12,0l-0.5,3.2l-4.3,0l0.1,-0.7l-3,0l-0.3,1.7l7.3,0l-0.5,5q-0.2,0.8 -0.9,1.2q-0.6,0.5 -1.4,0.5l0,0l-10,0l0.5,-3.4l0.8,0.9l6.5,0zm14.9,-12.25l3.5,9.03l4.37,-9.72l5.28,-0.46l-0.71,14.82l-4.48,0.39l0.52,-7.78l-3.29,7.12l-3.98,0.35l-2.56,-6.3l-0.35,7.46l-4.49,0.39l0.8,-13.82l-1.08,-0.91l6.47,-0.57zm28.51,6.91l-7.88,1.39l0.05,2.02l6.9,-1.22l1.12,-1.11l-0.2,3.49l-10.83,1.91q-0.69,0.12 -1.17,-0.3q-0.46,-0.33 -0.6,-1.11l0,0l-0.32,-9.29l12.8,-2.26l0.13,6.48m-7.87,-2.57l0.05,1.41l2.95,-0.52l-0.04,-1.41l-2.96,0.52zm22.56,-7.21l1.38,10.91l-4.83,1.3l-0.92,-8.45l-2.9,0.77l0.92,8.45l-4.83,1.3l-1.19,-10.24l-0.86,-0.5l13.23,-3.54zm6.84,-1.53l1.63,7.71l2.81,-1.34l-1.38,-6.74l-0.9,-0.41l5.36,-1.95l2.32,10.75l-4.7,1.71l-0.12,-0.91l-7.4,3.65l-2.08,-10.1l-0.9,-0.42l5.36,-1.95z" fill="#d47449" id="svg_21" transform="matrix(1,0,0,1,0,0)"/>
      </g>
     </g>
     <g class="slogan" id="svg_22">
      <g id="sloganDefaultGroup"/>
     </g>
    </g>
    <g class="border" id="svg_23"/>
   </g>
   <defs id="defs">
    <mask id="mask" xmlns="http://www.w3.org/2000/svg">
     <rect fill="white" height="250" id="showAll" width="235" x="188" y="96"/>
     <rect fill="black" height="0" id="hideNameBg" stroke="black" stroke-width="2" width="0" x="0" y="0"/>
     <rect fill="black" height="0" id="hideSloganBg" stroke="black" stroke-width="2" width="0" x="0" y="0"/>
    </mask>
   </defs>
  </g>
  <path d="m216,290l81,17l75,-9l6,20l-76,19l-91,-18l5,-29z" fill="#ffffff" id="svg_24" stroke="#ffffff"/>
  <text fill="#e9983e" font-family="Serif" font-size="28" font-style="normal" id="svg_25" stroke="#ffffff" stroke-width="0" text-anchor="middle" transform="matrix(1 0 0 1 0 0)" x="302" xml:space="preserve" y="328">eMenu</text>
 </g>
</svg>