<svg height="600" version="1.1" width="800" xmlns="http://www.w3.org/2000/svg" preserveAspectRatio="xMidYMid meet" viewBox="0 0 600 442" xmlns:xlink="http://www.w3.org/1999/xlink"><desc>Created with Snap</desc><defs/><g id="root" contentwidth="235" contentheight="250">
          <rect class="background" height="2000%" width="2000%" y="-1000%" x="-1000%" style="" fill="transparent"/>
          <g class="content" id="content" transform="matrix(1,0,0,1,-5.5,0)">
            <g class="icon">
            <svg height="250" version="1.1" width="235" xmlns="http://www.w3.org/2000/svg" x="188" y="96" preserveAspectRatio="none" transform="matrix(1,0,0,1,0,0)"><desc>Created with Snap</desc><defs/><svg xmlns="http://www.w3.org/2000/svg" viewBox="188 96 235 250"><path d="M305.5 96C370.393 96 423 148.607 423 213.5c0 18.153-4.116 35.344-11.467 50.691l5.649 4.682v53.337c-38.971 15.538-75.294 23.308-108.97 23.308-33.675 0-71.973-7.77-114.895-23.308v-53.337l5.97-5.063C192.048 248.56 188 231.503 188 213.5 188 148.607 240.607 96 305.5 96Zm102.805 181.936a178.09 178.09 0 0 1-6.685 3.163l-.757.334-.275.121 1.032-.455c-.56.25-1.122.497-1.686.742l-.817.353a120.392 120.392 0 0 1-1.748.74l-.229.095a183.45 183.45 0 0 1-2.828 1.147 186.304 186.304 0 0 1-11.336 4.068h-.001l-.148.048c-.383.123-.767.246-1.152.367l1.3-.415a191.38 191.38 0 0 1-3.028.95c-22.085 6.731-46.396 9.8-72.932 9.21-27.32-.61-52.95-4.234-76.888-10.873l.003.003-1.096-.308a273.79 273.79 0 0 1-.343-.097l1.44.405a330.711 330.711 0 0 1-3.809-1.088 269.293 269.293 0 0 1-10.44-3.29l.002.003-.732-.25c-.296-.1-.592-.202-.887-.304l1.619.554a272.105 272.105 0 0 1-5.125-1.79 260.89 260.89 0 0 1-8.996-3.433l18.437 22.966-21.485 19.337c40.989 14.494 77.391 21.741 109.207 21.741 31.815 0 66.004-7.247 102.568-21.741l-21-20.337 18.815-21.966ZM206.5 296a3.5 3.5 0 1 0 0 7 3.5 3.5 0 0 0 0-7Zm198 0a3.5 3.5 0 1 0 0 7 3.5 3.5 0 0 0 0-7Zm-99-189c-58.542 0-106 47.458-106 106 0 26.471 9.703 50.676 25.747 69.251 24.707 7.975 52.362 11.961 82.965 11.961 28.952 0 54.431-3.568 76.436-10.704C401.351 264.775 411.5 240.073 411.5 213c0-58.542-47.458-106-106-106Zm0-7C242.816 100 192 150.816 192 213.5c0 23.67 7.246 45.65 19.641 63.838a205.931 205.931 0 0 0 9.993 3.712C206.544 262.48 197.5 238.796 197.5 213c0-59.647 48.353-108 108-108s108 48.353 108 108c0 26.355-9.44 50.504-25.123 69.252a166.226 166.226 0 0 0 10.348-3.996C411.507 259.89 419 237.57 419 213.5c0-62.684-50.816-113.5-113.5-113.5Z" id="prefix-cIP-形状结合" fill="#D47449" fill-rule="nonzero"/></svg></svg><svg height="138" version="1.1" width="142" xmlns="http://www.w3.org/2000/svg" x="236" y="139" preserveAspectRatio="none" transform="matrix(1,0,0,1,0,0)"><desc>Created with Snap</desc><defs/><svg xmlns="http://www.w3.org/2000/svg" xmlns:xlink="http://www.w3.org/1999/xlink" preserveAspectRatio="xMidYMid meet" viewBox="0 0 512 512">
<g fill="#f7931e">
<svg class="icon" preserveAspectRatio="xMidYMid meet" version="1.0" viewBox="0 0 512 512">
<g>
<svg height="512" preserveAspectRatio="xMidYMid meet" width="512">
<svg version="1.1" viewBox="0 0 1992 1294">
<path d="M0 0 C3 2.7 5.9 5.5 8.8 8.4 C9.4 9.1 10.1 9.7 10.8 10.4 C23 23.5 28.2 39.7 28 57.3 C27.2 74.5 19.1 90.7 7.8 103.4 C7.1 104.1 6.5 104.9 5.9 105.7 C0.8 111.7 -5 116.5 -11.2 121.4 C-12.7 122.6 -12.7 122.6 -14.1 123.8 C-28.2 135 -44 143.8 -60.2 151.4 C-61 151.7 -61.7 152.1 -62.5 152.5 C-84.9 163.1 -108.3 170.5 -132.1 177.5 C-134.6 178.2 -137.1 179 -139.6 179.7 C-151.7 183.3 -163.7 186.8 -175.8 190.4 C-262.1 215.6 -345.7 246.2 -424.9 289.1 C-427.5 290.6 -430.2 292 -432.9 293.4 C-446.1 300.5 -459.1 307.9 -472 315.5 C-475.4 317.5 -478.9 319.5 -482.4 321.5 C-496.7 329.8 -510.7 338.3 -524.4 347.5 C-527.4 349.5 -530.4 351.5 -533.4 353.4 C-555.6 368.1 -577.1 383.5 -597.3 400.9 C-600 403.2 -602.7 405.4 -605.5 407.6 C-618 417.8 -629.4 429.5 -640.9 440.9 C-641.4 441.4 -641.9 441.9 -642.4 442.4 C-648.2 448.2 -653.9 454.1 -659.2 460.4 C-660.1 461.4 -661 462.4 -661.9 463.4 C-669.3 472.1 -676.4 481.2 -683.2 490.4 C-683.8 491.1 -684.3 491.8 -684.9 492.6 C-695 506.3 -703.4 519.5 -707.2 536.4 C-707.4 537.3 -707.7 538.2 -707.9 539.1 C-710.3 550.2 -710.4 561.3 -710.4 572.6 C-710.4 576.1 -710.5 579.5 -710.5 583 C-710.5 584.8 -710.5 586.6 -710.5 588.4 C-711 651.7 -711 651.7 -714 681.3 C-714.2 683.4 -714.4 685.5 -714.6 687.6 C-723.2 776.8 -752.1 861.4 -807.2 937.4 C-807.9 938.4 -808.7 939.3 -809.4 940.4 C-826.3 963.2 -845.1 984.3 -865.1 1004.4 C-865.9 1005.2 -866.7 1006 -867.5 1006.8 C-871.7 1011 -876 1015 -880.5 1018.9 C-882.7 1020.8 -884.8 1022.7 -886.9 1024.6 C-891.4 1028.7 -896.1 1032.5 -900.9 1036.2 C-904.7 1039.1 -908.3 1042.1 -911.9 1045.2 C-966.2 1090.7 -1031 1127 -1093.7 1159.5 C-1097.1 1161.3 -1100.5 1163.1 -1103.9 1164.9 C-1117.7 1172.3 -1132 1178.9 -1146.2 1185.4 C-1147.3 1185.9 -1148.4 1186.4 -1149.6 1186.9 C-1178.6 1200.2 -1208.3 1211.8 -1238.5 1222.1 C-1241.7 1223.2 -1245 1224.3 -1248.2 1225.5 C-1324.6 1252.2 -1409.4 1268.4 -1490.5 1268.6 C-1491.2 1268.6 -1492 1268.6 -1492.8 1268.6 C-1496.7 1268.6 -1500.7 1268.6 -1504.7 1268.6 C-1507.8 1268.6 -1511 1268.6 -1514.2 1268.7 C-1543.6 1268.9 -1572.7 1267.3 -1601.7 1263.1 C-1602.5 1263 -1603.2 1262.9 -1604 1262.8 C-1659.4 1255.1 -1711.7 1242 -1759.2 1211.4 C-1760.3 1210.7 -1761.4 1210 -1762.5 1209.3 C-1769.2 1205 -1775.8 1200.6 -1782.4 1196.3 C-1784.8 1194.6 -1787.3 1193.1 -1789.8 1191.5 C-1797.6 1186.4 -1804.7 1180.8 -1811.7 1174.7 C-1814 1172.8 -1816.3 1171 -1818.5 1169.1 C-1824.8 1164 -1830.6 1158.5 -1836.5 1152.9 C-1839.4 1150.2 -1842.3 1147.5 -1845.3 1144.9 C-1850.4 1140.4 -1855.1 1135.6 -1859.8 1130.8 C-1862.9 1127.6 -1866 1124.6 -1869.4 1121.8 C-1873.5 1118.3 -1877 1114.4 -1880.5 1110.5 C-1884.1 1106.6 -1887.8 1102.8 -1891.5 1099.1 C-1896 1094.7 -1900.2 1090.2 -1904.2 1085.4 C-1905.1 1084.4 -1905.9 1083.5 -1906.8 1082.5 C-1919.7 1067.6 -1929.2 1051.9 -1938.2 1034.4 C-1939 1033 -1939 1033 -1939.7 1031.6 C-1957 997.9 -1961 963.4 -1949.8 927 C-1943 906 -1932.9 886.4 -1920.2 868.4 C-1919.5 867.3 -1918.7 866.2 -1918 865.1 C-1909.7 853.3 -1900.5 842.2 -1891.2 831.2 C-1890.8 830.7 -1890.3 830.2 -1889.9 829.7 C-1880 818.2 -1869.4 807.4 -1858.7 796.7 C-1856.5 794.5 -1854.3 792.3 -1852.1 790.1 C-1850.7 788.7 -1849.2 787.3 -1847.8 785.8 C-1847.2 785.2 -1846.5 784.5 -1845.9 783.9 C-1842.1 780.1 -1838.1 776.5 -1834.1 773 C-1831.1 770.4 -1828.3 767.7 -1825.4 765 C-1820.4 760.3 -1815.3 755.9 -1809.9 751.6 C-1807.1 749.3 -1804.4 746.8 -1801.7 744.4 C-1796.4 739.5 -1790.9 734.9 -1785.2 730.4 C-1784 729.4 -1782.8 728.4 -1781.6 727.4 C-1773.4 720.7 -1765 714.1 -1756.6 707.7 C-1752.8 704.8 -1749.1 701.9 -1745.3 699 C-1737.7 693 -1730 687.2 -1722.1 681.7 C-1720.1 680.3 -1718.1 678.9 -1716.2 677.5 C-1706.6 670.7 -1697 664 -1687.2 657.4 C-1685.7 656.4 -1685.7 656.4 -1684.2 655.3 C-1670.6 646.2 -1657 637.2 -1642.8 628.9 C-1639.9 627.2 -1637.1 625.4 -1634.3 623.7 C-1627.6 619.5 -1620.8 615.9 -1613.9 612.4 C-1612.6 611.7 -1611.3 611.1 -1610.1 610.4 C-1606.1 608.4 -1602.2 606.4 -1598.2 604.4 C-1597.6 604.1 -1597 603.7 -1596.3 603.4 C-1587.9 599.1 -1579.5 594.9 -1571.1 590.7 C-1568.5 589.4 -1565.9 588.1 -1563.2 586.8 C-1545.1 577.6 -1526.8 568.8 -1508.2 560.4 C-1506.5 559.6 -1506.5 559.6 -1504.6 558.7 C-1470.5 543.1 -1435.8 529.1 -1400.5 516.2 C-1398.3 515.4 -1396.1 514.6 -1393.9 513.8 C-1311.9 483.8 -1226.1 463.3 -1025.2 450 C-983.2 451.2 -940.5 452.2 -900.2 438.4 C-899.3 438.1 -898.3 437.7 -897.3 437.4 C-861 424.9 -823.6 408.1 -791.2 387.4 C-790.5 386.9 -789.8 386.5 -789.1 386 C-774.7 376.7 -760.9 366.7 -747.2 356.4 C-725.5 340 -702.9 325.1 -680.1 310.3 C-675.3 307.2 -670.5 304 -665.7 300.9 C-663.8 299.6 -661.9 298.4 -660 297.1 C-656.1 294.6 -652.3 292.1 -648.4 289.6 C-636.8 282 -625.3 274.5 -613.7 267 C-609.5 264.3 -605.4 261.6 -601.2 258.9 C-596.3 255.7 -591.3 252.4 -586.3 249.2 C-567.6 237 -548.9 224.8 -530.2 212.6 C-517.9 204.5 -505.6 196.4 -493.2 188.4 C-492.4 187.8 -491.5 187.2 -490.6 186.6 C-461.2 167.5 -431.6 148.8 -401.6 130.6 C-397.4 128.1 -393.2 125.5 -388.9 123 C-377.9 116.3 -366.9 109.6 -355.9 103 C-350.1 99.5 -344.3 96 -338.5 92.5 C-314.9 78.1 -291.3 63.9 -267.2 50.4 C-266.5 50 -265.7 49.5 -265 49.1 C-202.5 13.9 -71 -55.4 0 0 Z M-849.6 440.5 C-859 445.5 -869.1 449 -879.2 452.4 C-876.6 455.1 -873.4 456.1 -869.9 457.5 C-869.2 457.8 -868.4 458.1 -867.7 458.4 C-866 459.1 -864.4 459.7 -862.8 460.4 C-859.2 461.8 -855.7 463.3 -852.2 464.7 C-850.4 465.4 -848.5 466.2 -846.7 466.9 C-837.7 470.6 -828.7 474.3 -819.7 478.1 C-817.1 479.1 -814.5 480.2 -812 481.3 C-804.8 484.2 -797.6 487.2 -790.5 490.3 C-787.7 491.4 -785 492.6 -782.3 493.7 C-780.4 494.5 -778.6 495.3 -776.7 496.1 C-775.6 496.5 -774.5 497 -773.4 497.5 C-772.5 497.9 -771.6 498.3 -770.6 498.7 C-768.1 499.7 -768.1 499.7 -765.2 498.4 C-763.7 496.6 -762.3 494.8 -760.9 492.9 C-760 491.8 -759.2 490.6 -758.3 489.4 C-757.8 488.8 -757.3 488.1 -756.8 487.5 C-753.3 482.8 -749.7 478.3 -746.1 473.7 C-742.7 469.4 -739.4 464.9 -736.2 460.4 C-738.3 458.3 -739.5 457.7 -742.1 456.7 C-742.9 456.3 -743.7 456 -744.6 455.7 C-745.5 455.3 -746.3 455 -747.2 454.6 C-748.2 454.2 -749.1 453.9 -750 453.5 C-752 452.7 -753.9 451.9 -755.9 451.1 C-760.9 449.1 -766 447 -771 445 C-772 444.6 -773 444.2 -774 443.8 C-782.4 440.4 -790.7 436.8 -798.9 433.1 C-799.7 432.8 -800.5 432.4 -801.4 432 C-802 431.7 -802.7 431.4 -803.4 431.1 C-819.9 424.5 -835.3 432.7 -849.6 440.5 Z M-873.2 475.4 C-870.5 477.5 -868 479.1 -864.8 480.5 C-863.5 481.1 -863.5 481.1 -862.2 481.6 C-861.3 482.1 -860.4 482.5 -859.4 482.9 C-857.4 483.8 -855.5 484.7 -853.5 485.6 C-851.9 486.3 -851.9 486.3 -850.4 487 C-827.9 497.2 -807.7 507.3 -792.2 527.1 C-790.4 529.4 -790.4 529.4 -788.2 530.4 C-779.9 531.1 -771.5 529.6 -763.2 528.4 C-767.4 523.8 -772.1 520.7 -777.4 517.4 C-778.3 516.9 -779.2 516.3 -780.1 515.8 C-803 501.9 -827 490.6 -852 481.4 C-852.7 481.1 -853.4 480.9 -854 480.6 C-855.9 479.9 -857.8 479.3 -859.7 478.6 C-860.8 478.2 -861.9 477.8 -863 477.4 C-866.4 476.3 -869.7 475.8 -873.2 475.4 Z M-765.2 545.4 C-765.2 546.7 -765.2 546.7 -765.2 548 C-764 605.4 -783.6 653.5 -819.2 698.4 C-819.7 699 -820.2 699.6 -820.7 700.2 C-827.1 708.3 -833.6 716.1 -840.6 723.5 C-842.5 725.6 -844.4 727.7 -846.2 729.9 C-851.1 735.4 -856.3 740.6 -861.4 745.7 C-863.2 747.4 -864.9 749.2 -866.6 750.9 C-872.3 756.6 -878.1 762.2 -884.2 767.4 C-886 769 -887.8 770.6 -889.5 772.3 C-894 776.3 -898.6 780.2 -903.3 784 C-906 786.2 -908.6 788.4 -911.2 790.7 C-918.6 797.2 -926.4 803.1 -934.3 809 C-937.2 811.1 -940 813.3 -942.9 815.5 C-967.4 834.5 -993.6 851.6 -1019.9 867.9 C-1022.3 869.4 -1024.7 870.9 -1027.1 872.5 C-1056.5 890.8 -1086.6 908.4 -1117.1 924.7 C-1120.3 926.4 -1123.5 928.1 -1126.6 929.9 C-1156.3 946 -1186.5 960.9 -1217.3 974.5 C-1219.2 975.4 -1221.1 976.2 -1223 977.1 C-1297.1 1010.1 -1375.3 1035.9 -1486.2 1060.4 C-1487.1 1060.6 -1488 1060.8 -1489 1060.9 C-1538.3 1070.9 -1588.3 1077.5 -1638.5 1081.1 C-1639.3 1081.1 -1640.2 1081.2 -1641.1 1081.3 C-1663.9 1082.8 -1686.6 1083.6 -1709.4 1083.6 C-1710.5 1083.6 -1711.6 1083.6 -1712.8 1083.6 C-1774.1 1083.5 -1847 1077.7 -1893.2 1032.4 C-1893.8 1031.8 -1894.5 1031.2 -1895.1 1030.6 C-1913 1011.6 -1919.5 984.8 -1919.2 959.4 C-1917.9 925.4 -1904.4 891.6 -1884.2 864.4 C-1883.8 863.8 -1883.3 863.2 -1882.9 862.5 C-1865.7 839.1 -1846.7 817.8 -1826.2 797.3 C-1825.5 796.5 -1824.7 795.7 -1823.9 794.9 C-1819.8 790.8 -1815.5 786.8 -1811.1 783 C-1808.1 780.4 -1805.3 777.7 -1802.4 775 C-1797.4 770.3 -1792.2 765.8 -1786.8 761.5 C-1784.3 759.4 -1781.8 757.2 -1779.4 755 C-1775 751 -1770.4 747.3 -1765.6 743.6 C-1761 740 -1756.5 736.3 -1752.1 732.5 C-1747.2 728.3 -1742.2 724.5 -1737.1 720.7 C-1734.2 718.4 -1731.8 716 -1729.2 713.4 C-1733.9 715 -1737.5 717.5 -1741.5 720.3 C-1742.2 720.7 -1742.9 721.2 -1743.6 721.7 C-1745.8 723.3 -1748 724.8 -1750.2 726.4 C-1751.6 727.4 -1753 728.3 -1754.4 729.3 C-1770.8 740.8 -1786.9 752.6 -1802.2 765.4 C-1802.8 765.9 -1803.4 766.4 -1804 766.9 C-1810.4 772.2 -1816.6 777.6 -1822.7 783.1 C-1824.1 784.4 -1825.5 785.6 -1826.9 786.8 C-1832.8 791.8 -1838.2 797.2 -1843.7 802.7 C-1845.3 804.3 -1846.9 805.9 -1848.5 807.5 C-1853.9 813 -1859.3 818.5 -1864.2 824.4 C-1864.8 825 -1865.3 825.6 -1865.9 826.3 C-1880.6 843.7 -1893.6 861.8 -1905.2 881.4 C-1905.9 882.5 -1905.9 882.5 -1906.6 883.7 C-1926.2 916.5 -1941.9 958.9 -1932.7 997.4 C-1925.3 1025.7 -1905.2 1046.1 -1880.7 1060.8 C-1838.3 1085.4 -1788.4 1092.6 -1740.1 1092.5 C-1738.4 1092.5 -1736.7 1092.5 -1735 1092.5 C-1731.5 1092.5 -1728 1092.5 -1724.4 1092.5 C-1720 1092.5 -1715.6 1092.5 -1711.2 1092.5 C-1664.2 1092.6 -1664.2 1092.6 -1617.2 1089.9 C-1615.9 1089.8 -1615.9 1089.8 -1614.5 1089.7 C-1592.4 1087.8 -1570.3 1085.2 -1548.2 1082.7 C-1546.3 1082.5 -1544.3 1082.3 -1542.4 1082.1 C-1503.9 1077.9 -1503.9 1077.9 -1465.7 1070.8 C-1464.7 1070.6 -1463.6 1070.3 -1462.5 1070.1 C-1435.5 1063.8 -1408.7 1056.3 -1382.3 1048 C-1380.1 1047.3 -1377.9 1046.7 -1375.7 1046 C-1301.2 1023 -1228.4 995.1 -1158.3 960.9 C-1155 959.3 -1151.7 957.7 -1148.3 956.1 C-1123.5 944.2 -1099 931.8 -1075.1 918 C-1072 916.3 -1069 914.5 -1065.9 912.8 C-1044.1 900.3 -1023 887 -1002.1 873.1 C-1001.3 872.5 -1000.4 872 -999.6 871.4 C-989.3 864.6 -979.2 857.6 -969.2 850.4 C-968.4 849.8 -967.5 849.1 -966.6 848.5 C-949.6 836.1 -933.1 823.1 -917.1 809.5 C-913.7 806.6 -910.3 803.8 -906.9 801.1 C-900.9 796.2 -895.3 790.9 -889.7 785.6 C-887.2 783.2 -884.6 780.9 -882 778.7 C-877.7 775 -873.8 771 -869.8 766.9 C-867.2 764.4 -867.2 764.4 -864.8 762.6 C-861.9 760.1 -859.6 757.5 -857.2 754.6 C-853 749.9 -848.4 745.5 -843.9 741.1 C-839.1 736.4 -834.6 731.5 -830.2 726.4 C-829.2 725.2 -828.1 724 -827.1 722.8 C-820.3 715.1 -813.8 707.2 -807.5 699.1 C-806.3 697.4 -805 695.8 -803.8 694.3 C-793.6 681.4 -784.5 667.6 -776.2 653.4 C-775.6 652.3 -775.6 652.3 -775 651.3 C-761.4 627.8 -741 592.5 -748.4 564.3 C-750.8 557.2 -754.8 550.5 -761.2 546.4 C-762.6 546 -763.9 545.7 -765.2 545.4 Z M-1050.2 661.4 C-1052 661.6 -1053.9 661.8 -1055.7 662 C-1139 671.6 -1222 689.1 -1492.4 806.7 C-1495.2 808.4 -1498 810 -1500.8 811.6 C-1514.6 819.6 -1528 828.3 -1541.2 837.4 C-1542 837.9 -1542.8 838.5 -1543.6 839 C-1561.8 851.5 -1579.3 865.1 -1596.2 879.4 C-1596.9 879.9 -1597.5 880.4 -1598.1 881 C-1606.1 887.7 -1613.8 894.6 -1621.4 901.7 C-1623.4 903.5 -1625.3 905.4 -1627.3 907.2 C-1634.4 913.8 -1641.5 920.5 -1648.4 927.4 C-1649 928 -1649.5 928.6 -1650.1 929.2 C-1653.7 932.8 -1657.1 936.5 -1660.4 940.4 C-1664.1 944.5 -1667.9 948.4 -1671.6 952.4 C-1675.9 957 -1680.1 961.6 -1684.2 966.4 C-1684.7 967 -1685.2 967.5 -1685.7 968.1 C-1708.5 994.3 -1728.6 1022.2 -1743.7 1053.5 C-1744.2 1054.4 -1744.6 1055.3 -1745 1056.2 C-1747.1 1060.6 -1748.8 1064.5 -1749.2 1069.4 C-1746.3 1069.7 -1743.4 1070 -1740.5 1070.3 C-1739.7 1070.4 -1738.9 1070.5 -1738.1 1070.6 C-1718.9 1072.6 -1699.5 1072.6 -1680.2 1072.6 C-1679.2 1072.6 -1679.2 1072.6 -1678.2 1072.6 C-1653.5 1072.7 -1628.9 1071.7 -1604.2 1069.4 C-1603.1 1069.3 -1603.1 1069.3 -1602 1069.2 C-1512.3 1060.8 -1424.6 1038.8 -1171.2 942.4 C-1169.6 941.6 -1169.6 941.6 -1168 940.8 C-1152.4 933.2 -1137.2 925.1 -1122.2 916.4 C-1120.3 915.3 -1118.4 914.2 -1116.4 913.1 C-1100.9 904.1 -1085.5 894.8 -1070.2 885.4 C-1068.7 884.5 -1068.7 884.5 -1067.2 883.5 C-1040.9 867.4 -1015.4 850.2 -990.2 832.4 C-989.4 831.8 -988.6 831.3 -987.8 830.7 C-977.1 823.1 -966.6 815.2 -956.3 807 C-954.3 805.5 -952.4 803.9 -950.4 802.4 C-939.4 793.8 -928.6 784.9 -917.9 775.8 C-916.2 774.4 -914.5 772.9 -912.8 771.4 C-905.9 765.6 -899.2 759.7 -892.6 753.5 C-890 751.1 -887.5 748.8 -884.9 746.4 C-877.1 739.3 -869.6 732 -862.2 724.6 C-860.8 723.3 -859.4 721.9 -858 720.5 C-848.7 711.4 -840.6 702.1 -833.2 691.4 C-834.2 690.3 -835.1 689.1 -836.1 688 C-836.6 687.4 -837.2 686.7 -837.7 686.1 C-854 667.8 -887.3 665.7 -910 662.7 C-912.2 662.4 -914.4 662.1 -916.6 661.8 C-960.5 655.8 -1006.2 656.2 -1050.2 661.4 Z " transform="translate(1960.234375,21.61328125)"/>
</svg>
</svg>
</g>
</svg>
</g>
</svg></svg></g>
            <g id="icon_name_and_slogan_gap">
            </g>
            <g class="name_and_slogan" id="name_and_slogan_id">
              <g class="name"><g id="nameDefaultGroup"><path d="M238.72981540171685 303.69289349397064L242.4885858848605 305.0609740672733L240.23919950114245 313.2877754442815L246.60630496382413 306.0276123588482L250.64698323320354 307.49829897514854L239.98113140160078 319.25965964074743L235.75251460806416 317.7205689957819L237.27536701922307 310.61276198279774L231.99374412492054 316.3524884224792L227.76512733138398 314.8133977775138L230.93036664919381 300.85412630436764L230.63153041046368 300.2132699223119L235.14205499023606 301.8549666102751L232.72165853485515 310.55161429767617L238.72981540171685 303.69289349397064zM258.66554671966793 307.11687691190843L256.5210651195933 312.02922855515845L264.2484717299058 314.09978091597867L259.97845539885475 324.24014385487567L255.1488262674094 322.9460486293631L258.5786098204464 315.1687364471682L255.68083234157916 314.39227931186065L252.25104878854222 322.1695914940555L247.42141965709686 320.8754962685429L253.62886235214052 306.5955223474271L253.35295467507802 305.6933721638446L258.66554671966793 307.11687691190843zM274.3598137478386 317.836872782606L271.7008328147056 317.3680227029053L271.33022308643626 318.31810082038413L266.4061843213752 317.4498599320495L267.703318370318 314.1245865208736L279.8164537323682 316.2604591061769L276.6548547794807 325.55262204389487L277.43128471929253 326.90803952517643L265.81055323374846 324.85899102870667Q265.1211878066399 324.73743730433984 264.81408879426846 324.17557415676697Q264.48962496413037 323.71219178449536 264.62854350626395 322.92434558208555L264.62854350626395 322.92434558208555L266.24990096147496 318.3361869097605L273.63595910906656 319.63854824226246L274.3598137478386 317.836872782606M270.2474154058626 321.5796230917922L269.6915008134585 323.00474026801044L272.153520195989 323.43886071217776L272.70943478839314 322.0137435359595L270.2474154058626 321.5796230917922zM283.4659790205809 314.90072829961815L283.0376062657332 314.0601946697709L288.5166771052378 314.539551254883L288.01736048749063 316.8046523376697L291.1055640515751 317.0748351401875L290.3895773456601 319.521744014043L287.500612721194 319.26899236007483L286.0898186107002 325.0681009103432L288.58030535592957 325.28599026721236L287.8643186500146 327.7328991410679L282.38524781050995 327.2535425559558Q281.68791152184576 327.19253353603244 281.23339204417374 326.6508583156127Q280.77015699222693 326.2088025650022 281.03912052604335 325.42927795507836L281.03912052604335 325.42927795507836L282.61925870054444 318.8419292206113L280.6268693043609 318.667617735116L281.1436170706576 316.20327771271093L283.1360064668411 316.37758919820624L283.4659790205809 314.90072829961815zM300.80070987113345 325.8207420009271L301.00070987113344 324.1207420009271L293.50070987113344 324.1207420009271L294.50070987113344 317.42074200092713L306.50070987113344 317.42074200092713L306.00070987113344 320.6207420009271L301.7007098711334 320.6207420009271L301.80070987113345 319.92074200092713L298.80070987113345 319.92074200092713L298.50070987113344 321.6207420009271L305.80070987113345 321.6207420009271L305.30070987113345 326.6207420009271Q305.10070987113346 327.42074200092713 304.4007098711334 327.8207420009271Q303.80070987113345 328.3207420009271 303.00070987113344 328.3207420009271L303.00070987113344 328.3207420009271L293.00070987113344 328.3207420009271L293.50070987113344 324.92074200092713L294.30070987113345 325.8207420009271L300.80070987113345 325.8207420009271zM315.70342631584964 313.5695853607938L319.20370040825054 322.5988755476284L323.57336443077446 312.8810549930873L328.85319633066064 312.4191295565247L328.1419963528677 327.23750310396866L323.6591202114549 327.6297039463331L324.18345463000804 319.8544178797295L320.8909543581343 326.96844922346924L316.90617556576734 327.31707219445985L314.347273841724 321.01611814235883L313.99603163996494 328.4751146509854L309.51315549855207 328.86731549334985L310.31151121909267 315.04513664399764L309.22816077825325 314.13609768865354L315.70342631584964 313.5695853607938zM344.2099905467609 320.4793405984723L336.3315285226632 321.86852601980775L336.3833825520934 323.8902359791322L343.27703682317883 322.6746987354637L344.40100354219453 321.56262912678574L344.20356114385226 325.0498940291608L333.370675860718 326.96002398349697Q332.68131043360944 327.08157770786386 332.2005632435711 326.6586331024245Q331.7371808712995 326.33416927228643 331.5982623291659 325.5463230698766L331.5982623291659 325.5463230698766L331.280949173546 316.26034911119734L344.0834499627047 314.00292280152723L344.2099905467609 320.4793405984723M336.3436660568707 317.9062220586933L336.38981195500196 319.3196825484438L339.34423521403863 318.79873801544295L339.2980893159073 317.38527752569246L336.3436660568707 317.9062220586933zM358.9039674810974 310.69742461048014L360.2762063332813 321.61424468468476L355.44657720183596 322.90833991019736L354.5282007971506 314.45809821073595L351.63042331828336 315.23455534604346L352.54879972296874 323.6847970455049L347.71917059152344 324.9788922710175L346.5281050709113 314.73822027521527L345.6707836609372 314.24324552838465L358.9039674810974 310.69742461048014zM365.7404596129885 309.17277292614403L367.3745548480642 316.87859752593243L370.1849959295028 315.53642729538706L368.7989515756742 308.80449733071714L367.90175264079613 308.38612659649505L373.2580005792758 306.4366117795387L375.5764812103467 317.1922915610936L370.8780181064172 318.90239227772196L370.75813850158124 317.98826489034957L363.36047714012994 321.6385534243273L361.28141060938697 311.5406584773225L360.38421167450883 311.1222877431004L365.7404596129885 309.17277292614403z" style="" fill="#d47449" transform="matrix(1,0,0,1,0,0)"/></g></g>
              <g class="slogan"><g id="sloganDefaultGroup"/></g>
            </g>
            <g class="border">
            </g>
          </g>
          
          <defs id="defs">
            <mask xmlns="http://www.w3.org/2000/svg" id="mask">
                <rect id="showAll" fill="white" x="188" y="96" width="235" height="250"/>
                <rect id="hideNameBg" fill="black" x="0" y="0" width="0" height="0" stroke-width="2" stroke="black"/>
                <rect id="hideSloganBg" fill="black" x="0" y="0" width="0" height="0" stroke-width="2" stroke="black"/>
            </mask>
          </defs>
          
        </g>
        </svg>